<?xml version="1.0" encoding="UTF-8" standalone="no"?>
<!DOCTYPE svg PUBLIC "-//W3C//DTD SVG 1.1//EN"
 "http://www.w3.org/Graphics/SVG/1.1/DTD/svg11.dtd">
<!-- Generated by graphviz version 2.50.0 (0)
 -->
<!-- Title: G Pages: 1 -->
<svg width="190pt" height="116pt"
 viewBox="0.00 0.00 189.82 116.00" xmlns="http://www.w3.org/2000/svg" xmlns:xlink="http://www.w3.org/1999/xlink">
<g id="graph0" class="graph" transform="scale(1 1) rotate(0) translate(4 112)">
<title>G</title><style>.edge>path:hover{stroke-width:8}</style>
<polygon fill="white" stroke="transparent" points="-4,4 -4,-112 185.82,-112 185.82,4 -4,4"/>
<!-- ctrl -->
<g id="node1" class="node">
<title>ctrl</title><style>.edge>path:hover{stroke-width:8}</style>
<ellipse fill="#ac4949" stroke="black" cx="88.26" cy="-18" rx="27" ry="18"/>
<text text-anchor="middle" x="88.26" y="-15.5" font-family="Helvetica,sans-Serif" font-size="10.00" fill="#ffffff">ctrl</text>
</g>
<!-- ensemble -->
<g id="node2" class="node">
<title>ensemble</title><style>.edge>path:hover{stroke-width:8}</style>
<ellipse fill="#53b653" stroke="black" cx="38.26" cy="-90" rx="38.03" ry="18"/>
<text text-anchor="middle" x="38.26" y="-87.5" font-family="Helvetica,sans-Serif" font-size="10.00" fill="#000000">ensemble</text>
</g>
<!-- ensemble&#45;&gt;ctrl -->
<g id="edge1" class="edge">
<title>ensemble&#45;&gt;ctrl</title><style>.edge>path:hover{stroke-width:8}</style>
<path fill="none" stroke="black" d="M49.86,-72.76C56.2,-63.89 64.16,-52.74 71.2,-42.89"/>
<polygon fill="#53b653" stroke="black" points="74.11,-44.84 77.07,-34.67 68.41,-40.77 74.11,-44.84"/>
</g>
<!-- nurbShapes -->
<g id="node3" class="node">
<title>nurbShapes</title><style>.edge>path:hover{stroke-width:8}</style>
<ellipse fill="#5353b6" stroke="black" cx="138.26" cy="-90" rx="43.62" ry="18"/>
<text text-anchor="middle" x="138.26" y="-87.5" font-family="Helvetica,sans-Serif" font-size="10.00" fill="#ffffff">nurbShapes</text>
</g>
<!-- nurbShapes&#45;&gt;ctrl -->
<g id="edge2" class="edge">
<title>nurbShapes&#45;&gt;ctrl</title><style>.edge>path:hover{stroke-width:8}</style>
<path fill="none" stroke="black" d="M126.41,-72.41C120.07,-63.53 112.15,-52.44 105.17,-42.67"/>
<polygon fill="#5353b6" stroke="black" points="108,-40.61 99.34,-34.51 102.31,-44.68 108,-40.61"/>
</g>
</g>
</svg>
